<?xml version="1.0" encoding="iso-8859-1"?>
<!-- Generator: Adobe Illustrator 19.0.0, SVG Export Plug-In . SVG Version: 6.00 Build 0)  -->
<svg version="1.1" id="Layer_1" xmlns="http://www.w3.org/2000/svg" xmlns:xlink="http://www.w3.org/1999/xlink" x="0px" y="0px"
	 viewBox="0 0 512 512" style="enable-background:new 0 0 512 512;" xml:space="preserve">
<g>
	<g>
		<circle cx="256.002" cy="468.859" r="8.631"/>
	</g>
</g>
<g>
	<g>
		<path d="M256.001,345.902c82.598,0,149.799-77.585,149.799-172.951S338.599,0,256.001,0c-82.6,0-149.8,77.585-149.8,172.951
			c0,79.5,46.704,146.633,110.096,166.773v132.572c0,21.892,17.811,39.704,39.704,39.704c21.892,0,39.704-17.811,39.704-39.704
			v-98.528c0-4.767-3.863-8.631-8.631-8.631s-8.631,3.865-8.631,8.631v98.528c0,12.374-10.067,22.441-22.441,22.441
			c-12.374,0-22.441-10.067-22.441-22.441V343.961C240.882,345.236,248.375,345.902,256.001,345.902z M123.463,172.951
			c0-85.847,59.456-155.689,132.537-155.689s132.536,69.841,132.536,155.689S329.082,328.64,256.001,328.64
			S123.463,258.798,123.463,172.951z"/>
	</g>
</g>
<g>
	<g>
		<path d="M256.001,37.632c-61.757,0-112,60.704-112,135.319s50.243,135.319,112,135.319s111.999-60.704,111.999-135.319
			S317.757,37.632,256.001,37.632z M256.001,291.009c-52.24,0-94.737-52.96-94.737-118.057s42.498-118.058,94.737-118.058
			c52.238,0,94.736,52.96,94.736,118.057S308.239,291.009,256.001,291.009z"/>
	</g>
</g>
<g>
</g>
<g>
</g>
<g>
</g>
<g>
</g>
<g>
</g>
<g>
</g>
<g>
</g>
<g>
</g>
<g>
</g>
<g>
</g>
<g>
</g>
<g>
</g>
<g>
</g>
<g>
</g>
<g>
</g>
</svg>
