<?xml version="1.0" encoding="iso-8859-1"?>
<!-- Generator: Adobe Illustrator 19.0.0, SVG Export Plug-In . SVG Version: 6.00 Build 0)  -->
<svg version="1.1" id="Layer_1" xmlns="http://www.w3.org/2000/svg" xmlns:xlink="http://www.w3.org/1999/xlink" x="0px" y="0px"
	 viewBox="0 0 512.001 512.001" style="enable-background:new 0 0 512.001 512.001;" xml:space="preserve">
<g>
	<g>
		<rect x="294.299" y="224.088" width="51.063" height="38.297"/>
	</g>
</g>
<g>
	<g>
		<path d="M420.102,91.591c-9.637-14.149-22.323-21.091-41.279-20.692L327.76,19.837H184.24l-51.063,51.063
			c-18.956-0.4-31.642,6.542-41.279,20.692L0,236.003l96.43,64.286v191.875h319.141V300.29l96.43-64.286L420.102,91.591z
			 M319.828,66.065l23.983,23.983l-36.748,36.748l-23.983-23.983L319.828,66.065z M273.599,58.133l-17.6,17.6l-17.6-17.6H273.599z
			 M192.172,66.065l36.747,36.748l-23.983,23.983l-36.748-36.748L192.172,66.065z M411.628,256.892l-34.354-34.355v231.33H134.727
			v-231.33l-34.354,34.355l-47.935-31.957l71.771-112.783c2.354-3.116,3.896-2.957,8.969-2.957l71.759,71.759l51.063-51.063
			l51.063,51.063l71.759-71.759c5.073,0,6.615-0.16,8.969,2.957l71.771,112.783L411.628,256.892z"/>
	</g>
</g>
<g>
</g>
<g>
</g>
<g>
</g>
<g>
</g>
<g>
</g>
<g>
</g>
<g>
</g>
<g>
</g>
<g>
</g>
<g>
</g>
<g>
</g>
<g>
</g>
<g>
</g>
<g>
</g>
<g>
</g>
</svg>
