<?xml version="1.0" encoding="iso-8859-1"?>
<!-- Generator: Adobe Illustrator 19.0.0, SVG Export Plug-In . SVG Version: 6.00 Build 0)  -->
<svg version="1.1" id="Layer_1" xmlns="http://www.w3.org/2000/svg" xmlns:xlink="http://www.w3.org/1999/xlink" x="0px" y="0px"
	 viewBox="0 0 482.444 482.444" style="enable-background:new 0 0 482.444 482.444;" xml:space="preserve">
<g>
	<g>
		<path d="M372.814,26.948c-36.032-35.928-94.648-35.92-130.68,0l-3.096,3.08l-3.088-3.088c-36.032-35.92-94.664-35.92-130.68,0
			C87.806,44.348,78.19,67.828,78.19,93.068c0,25.232,9.616,48.712,27.032,66.072l119.376,120.928
			c1.512,1.52,3.552,2.376,5.696,2.376h17.48c2.144,0,4.192-0.856,5.704-2.368l119.336-120.88
			c17.464-17.408,27.08-40.888,27.08-66.12C399.894,67.836,390.278,44.356,372.814,26.948z M361.462,147.9L244.438,266.444h-10.792
			L116.558,147.86c-14.432-14.384-22.376-33.84-22.376-54.792c0-20.952,7.944-40.416,22.376-54.8
			c29.8-29.712,78.288-29.704,108.088,0l8.736,8.712c3.128,3.12,8.168,3.12,11.296,0l8.744-8.712
			c29.792-29.704,78.28-29.712,108.088,0c14.432,14.392,22.376,33.848,22.376,54.8C383.886,114.02,375.942,133.476,361.462,147.9z"
			/>
	</g>
</g>
<g>
	<g>
		<path d="M240.182,71.804c-34.832,0-63.16,28.256-63.16,62.992s28.328,62.992,63.16,62.992c34.832,0,63.168-28.256,63.168-62.992
			S275.014,71.804,240.182,71.804z M240.182,181.788c-26,0-47.16-21.08-47.16-46.992s21.16-46.992,47.16-46.992
			c26.008,0,47.168,21.08,47.168,46.992S266.19,181.788,240.182,181.788z"/>
	</g>
</g>
<g>
	<g>
		<path d="M248.894,106.58c-0.048-4.392-3.616-8.136-8-8.136c-0.024,0-0.056,0-0.088,0c-4.416,0-7.96,3.776-7.912,8.192
			l0.584,56.112c0.048,4.384,3.616,7.696,8,7.696c0.024,0,0.056,0,0.088,0c4.416,0,7.96-3.552,7.912-7.976L248.894,106.58z"/>
	</g>
</g>
<g>
	<g>
		<path d="M269.19,130.444c-0.024,0-0.056,0-0.088,0l-56-0.528c-4.408,0.048-7.96,2.56-7.912,6.976c0.048,4.384,3.616,9.552,8,9.552
			c0.024,0,0.056,0,0.088,0l56-1.256c4.408-0.04,7.96-4.336,7.912-8.752C277.142,132.044,273.574,130.444,269.19,130.444z"/>
	</g>
</g>
<g>
	<g>
		<path d="M473.222,314.444h-88c-13.232,0-24,10.768-24,24v120c0,13.232,10.768,24,24,24h88c4.424,0,8-3.584,8-8v-152
			C481.222,318.028,477.646,314.444,473.222,314.444z M465.222,466.444h-80c-4.416,0-8-3.592-8-8v-120c0-4.408,3.584-8,8-8h80
			V466.444z"/>
	</g>
</g>
<g>
	<g>
		<path d="M369.222,330.444h-48c-4.424,0-8,3.584-8,8v120c0,4.416,3.576,8,8,8h48c4.424,0,8-3.584,8-8v-120
			C377.222,334.028,373.646,330.444,369.222,330.444z M361.222,450.444h-32v-104h32V450.444z"/>
	</g>
</g>
<g>
	<g>
		<path d="M323.038,338.78l-75.024-17.536c-4.896-1.144-9.92-0.752-14.544,1.152l-62.64,25.608
			c-8.096,3.304-14.024,10.008-16.432,18.088L32.174,329.164c-7.36-2.216-15.088-0.872-21.256,3.696
			c-6.168,4.576-9.696,11.6-9.696,19.272v17.88c0,8.048,3.992,15.512,10.688,19.968l88.88,59.248c0.792,0.536,1.68,0.92,2.6,1.136
			l132.328,31.128c1.792,0.424,3.656,0.64,5.504,0.64s3.712-0.208,5.496-0.64l75.8-17.912c3.608-0.848,6.152-4.048,6.168-7.744
			l0.528-109.224C329.23,342.876,326.67,339.628,323.038,338.78z M312.718,449.452l-69.664,16.464c-1.2,0.288-2.472,0.288-3.672,0
			l-130.928-30.8l-87.672-58.448c-2.232-1.488-3.56-3.976-3.56-6.656v-17.88c0-2.552,1.176-4.904,3.232-6.424
			c2.056-1.52,4.648-1.976,7.088-1.232l127.032,38.384c3.656,11.344,14.368,19.584,26.968,19.584h59.68c4.424,0,8-3.584,8-8
			c0-4.416-3.576-8-8-8h-59.68c-6.8,0-12.32-5.472-12.32-12.224c0-5.024,3.008-9.504,7.656-11.408l62.648-25.608
			c1.552-0.64,3.224-0.752,4.84-0.384l68.824,16.088L312.718,449.452z"/>
	</g>
</g>
<g>
	<g>
		<path d="M433.222,434.444h-24c-4.424,0-8,3.584-8,8c0,4.416,3.576,8,8,8h24c4.424,0,8-3.584,8-8
			C441.222,438.028,437.646,434.444,433.222,434.444z"/>
	</g>
</g>
<g>
</g>
<g>
</g>
<g>
</g>
<g>
</g>
<g>
</g>
<g>
</g>
<g>
</g>
<g>
</g>
<g>
</g>
<g>
</g>
<g>
</g>
<g>
</g>
<g>
</g>
<g>
</g>
<g>
</g>
</svg>
