<?xml version="1.0" encoding="iso-8859-1"?>
<!-- Generator: Adobe Illustrator 19.0.0, SVG Export Plug-In . SVG Version: 6.00 Build 0)  -->
<svg version="1.1" id="Layer_1" xmlns="http://www.w3.org/2000/svg" xmlns:xlink="http://www.w3.org/1999/xlink" x="0px" y="0px"
	 viewBox="0 0 512 512" style="enable-background:new 0 0 512 512;" xml:space="preserve">
<g>
	<g>
		<path d="M420.379,110.484V67.368h-26.947V13.474h-59.284v53.895H307.2v43.116h-107.79V67.368h-26.947V13.474h-59.284v53.895
			H86.232v43.116H0v86.232h21.558v24.25h16.168v-24.25h436.547v123.958H37.726v-78.145H21.558v255.998h250.615v-16.168H37.726
			V336.842h436.547v145.516H293.727v16.168h196.715v-301.81H512v-86.232H420.379z M350.316,29.642h26.947v37.726h-26.947V29.642z
			 M323.368,83.537h80.842v26.947h-80.842V83.537z M129.347,29.642h26.947v37.726h-26.947V29.642z M102.4,83.537h80.842v26.947
			H102.4V83.537z M495.832,180.547H16.168v-53.895h479.663V180.547z"/>
	</g>
</g>
<g>
	<g>
		<rect x="40.421" y="142.821" width="312.589" height="16.168"/>
	</g>
</g>
<g>
	<g>
		<rect x="374.568" y="142.821" width="32.337" height="16.168"/>
	</g>
</g>
<g>
	<g>
		<polygon points="113.179,256 113.179,231.747 97.011,231.747 97.011,256 72.758,256 72.758,272.168 97.011,272.168 
			97.011,296.421 113.179,296.421 113.179,272.168 137.432,272.168 137.432,256 		"/>
	</g>
</g>
<g>
	<g>
		<rect x="374.568" y="256" width="64.674" height="16.168"/>
	</g>
</g>
<g>
	<g>
		<rect x="247.916" y="215.579" width="16.168" height="86.232"/>
	</g>
</g>
<g>
	<g>
		<polygon points="59.284,358.4 59.284,420.379 75.453,420.379 75.453,374.568 110.484,374.568 110.484,358.4 		"/>
	</g>
</g>
<g>
	<g>
		<rect x="59.284" y="431.158" width="16.168" height="21.558"/>
	</g>
</g>
<g>
</g>
<g>
</g>
<g>
</g>
<g>
</g>
<g>
</g>
<g>
</g>
<g>
</g>
<g>
</g>
<g>
</g>
<g>
</g>
<g>
</g>
<g>
</g>
<g>
</g>
<g>
</g>
<g>
</g>
</svg>
