<?xml version="1.0" encoding="iso-8859-1"?>
<!-- Generator: Adobe Illustrator 19.0.0, SVG Export Plug-In . SVG Version: 6.00 Build 0)  -->
<svg version="1.1" id="Capa_1" xmlns="http://www.w3.org/2000/svg" xmlns:xlink="http://www.w3.org/1999/xlink" x="0px" y="0px"
	 viewBox="0 0 490.996 490.996" style="enable-background:new 0 0 490.996 490.996;" xml:space="preserve">
<g>
	<path d="M85.8,225.398c11.1,0,20.1,9,20.1,20.1c0,11.1-9,20.1-20.1,20.1s-20.1-9-20.1-20.1C65.7,234.398,74.7,225.398,85.8,225.398
		z M362.6,228.798h20.5v-68.7c0-18.3-14.9-33.2-33.2-33.2H33.2c-18.3,0-33.2,14.9-33.2,33.2v170.8c0,18.3,14.9,33.2,33.2,33.2h239.2
		c-0.8-2.4-1.2-5-1.2-7.7v-20.6H67.3c0.4-2,0.6-4.1,0.6-6.2c0-18.6-15-33.6-33.6-33.6c-2,0-4,0.2-5.9,0.5v-102
		c1.9,0.3,3.9,0.5,5.9,0.5c18.6,0,33.6-15,33.6-33.6c0-2.1-0.2-4.2-0.6-6.2h246.5c-0.7,2.6-1,5.4-1,8.2c0,18.6,15,33.6,33.6,33.6
		c2.9,0,5.7-0.4,8.3-1v34.1C357.2,229.298,359.9,228.798,362.6,228.798z M396.8,246.298h-34.2c-4.3,0-7.7,3.5-7.7,7.7v102.2
		c0,4.3,3.5,7.7,7.7,7.7h34.2c4.3,0,7.7-3.5,7.7-7.7v-102.1C404.5,249.798,401.1,246.298,396.8,246.298z M330.6,281.998h-34.1
		c-4.3,0-7.7,3.5-7.7,7.7v66.6c0,4.3,3.5,7.7,7.7,7.7h34.2c4.3,0,7.7-3.5,7.7-7.7v-66.6C338.4,285.398,334.9,281.998,330.6,281.998z
		 M450.6,143.598c-2.3-3.3-7.2-3.3-9.5,0l-39.3,57.4c-2.6,3.8,0.1,9,4.8,9h14.5v146.3c0,4.3,3.5,7.7,7.7,7.7H463
		c4.3,0,7.7-3.5,7.7-7.7v-146.3h14.5c4.6,0,7.4-5.2,4.8-9L450.6,143.598z M162.5,245.498c0,16,13,29.1,29.1,29.1s29.1-13,29.1-29.1
		s-13-29.1-29.1-29.1S162.5,229.498,162.5,245.498z M191.6,172.998c40,0,72.5,32.4,72.5,72.5c0,40-32.4,72.5-72.5,72.5
		s-72.5-32.5-72.5-72.5S151.5,172.998,191.6,172.998z M191.6,196.898c-26.8,0-48.6,21.8-48.6,48.6c0,26.8,21.8,48.6,48.6,48.6
		s48.6-21.8,48.6-48.6C240.1,218.698,218.3,196.898,191.6,196.898z"/>
</g>
<g>
</g>
<g>
</g>
<g>
</g>
<g>
</g>
<g>
</g>
<g>
</g>
<g>
</g>
<g>
</g>
<g>
</g>
<g>
</g>
<g>
</g>
<g>
</g>
<g>
</g>
<g>
</g>
<g>
</g>
</svg>
