<?xml version="1.0" encoding="iso-8859-1"?>
<!-- Generator: Adobe Illustrator 18.0.0, SVG Export Plug-In . SVG Version: 6.00 Build 0)  -->
<!DOCTYPE svg PUBLIC "-//W3C//DTD SVG 1.1//EN" "http://www.w3.org/Graphics/SVG/1.1/DTD/svg11.dtd">
<svg version="1.1" id="Capa_1" xmlns="http://www.w3.org/2000/svg" xmlns:xlink="http://www.w3.org/1999/xlink" x="0px" y="0px"
	 viewBox="0 0 460 460" style="enable-background:new 0 0 460 460;" xml:space="preserve">
<g id="XMLID_504_">
	<path id="XMLID_893_" d="M420.35,132.922l-78.879-100.96c-2.47-3.162-7.036-3.72-10.195-1.252
		c-3.162,2.47-3.721,7.034-1.252,10.195l7.542,9.653l-23.401,18.283L267.618,9.106C263.108,3.319,256.313,0,248.976,0H74.701
		C54.525,0,38.11,16.414,38.11,36.591V423.41c0,20.176,16.414,36.59,36.59,36.59h286.588c20.176,0,36.59-16.414,36.59-36.59V184.395
		c0-5.236-1.772-10.395-4.991-14.526l-15.032-19.291l23.506-18.365l7.542,9.653c1.433,1.833,3.569,2.792,5.728,2.792
		c1.564,0,3.14-0.503,4.467-1.54C422.26,140.648,422.82,136.083,420.35,132.922z M381.429,178.798
		c1.24,1.592,1.923,3.58,1.923,5.598V423.41c0,12.166-9.898,22.064-22.064,22.064H74.7c-12.166,0-22.064-9.898-22.064-22.064V36.591
		c0-12.166,9.898-22.064,22.065-22.064h174.275c2.828,0,5.445,1.279,7.184,3.509L381.429,178.798z M392.418,120.767l-23.491,18.354
		L323.094,80.3l23.416-18.295L392.418,120.767z"/>
	<path id="XMLID_899_" d="M274.606,99.606c1.23-2.461,0.965-5.405-0.686-7.606L240.51,47.453c-1.371-1.829-3.525-2.905-5.811-2.905
		H89.92c-4.012,0-7.263,3.252-7.263,7.263v44.547c0,4.011,3.251,7.263,7.263,7.263H268.11
		C270.861,103.621,273.375,102.067,274.606,99.606z M97.183,89.095V59.074h133.884l22.516,30.021H97.183z"/>
	<path id="XMLID_902_" d="M272.138,251.523c-2.119-0.821-4.503-0.606-6.438,0.589l-18.721,11.54
		c-3.02-23.109-13.563-73.368-49.212-95.988c-2.985-1.893-6.899-1.364-9.273,1.255c-2.974,3.281-72.765,81.2-66.32,154.539
		c2.957,33.643,19.114,58.921,45.494,71.177c10.565,4.909,22.021,7.32,33.583,7.32c17.41,0,35.051-5.474,50.196-16.132
		c19.294-13.579,48.203-48.462,25.048-129.523C275.87,254.113,274.258,252.345,272.138,251.523z M212.251,331.835
		c2.673,1.368,5.915,0.95,8.154-1.053l19.158-17.148c7.966,38.537-5.505,55.03-14.854,61.61
		c-13.06,9.192-30.235,11.072-43.753,4.792c-13.485-6.265-21.778-19.585-23.354-37.506c-3.097-35.238,25.428-74.518,36.67-88.496
		c15.723,16.563,15.634,55.648,14.066,70.569C208.021,327.59,209.577,330.465,212.251,331.835z M248.743,369.383
		c7.731-14.23,11.832-36.611,1.951-71.205c-0.688-2.405-2.565-4.288-4.969-4.983c-2.404-0.693-4.995-0.102-6.859,1.566
		l-15.361,13.75c-0.159-21.507-4.046-56.65-26.295-70.768c-2.984-1.894-6.9-1.365-9.273,1.255
		c-2.011,2.218-49.191,54.897-44.805,104.802c0.233,2.647,0.6,5.209,1.067,7.702c-4.024-8.548-6.593-18.391-7.553-29.318
		c-5.027-57.184,43.66-120.771,58.441-138.625c34.946,27.712,38.507,92.054,38.54,92.727c0.122,2.567,1.593,4.879,3.866,6.078
		c2.274,1.198,5.011,1.107,7.2-0.242l20.31-12.52C279.228,327.595,263.29,356.037,248.743,369.383z"/>
</g>
<g>
</g>
<g>
</g>
<g>
</g>
<g>
</g>
<g>
</g>
<g>
</g>
<g>
</g>
<g>
</g>
<g>
</g>
<g>
</g>
<g>
</g>
<g>
</g>
<g>
</g>
<g>
</g>
<g>
</g>
</svg>
