<?xml version="1.0" encoding="iso-8859-1"?>
<!-- Generator: Adobe Illustrator 19.0.0, SVG Export Plug-In . SVG Version: 6.00 Build 0)  -->
<svg version="1.1" id="Layer_1" xmlns="http://www.w3.org/2000/svg" xmlns:xlink="http://www.w3.org/1999/xlink" x="0px" y="0px"
	 viewBox="0 0 496 496" style="enable-background:new 0 0 496 496;" xml:space="preserve">
<g>
	<g>
		<path d="M112,432c-8.832,0-16,7.152-16,16v32c0,8.848,7.168,16,16,16c8.832,0,16-7.152,16-16v-32C128,439.152,120.832,432,112,432
			z"/>
	</g>
</g>
<g>
	<g>
		<path d="M384,432c-8.832,0-16,7.152-16,16v32c0,8.848,7.168,16,16,16c8.832,0,16-7.152,16-16v-32C400,439.152,392.832,432,384,432
			z"/>
	</g>
</g>
<g>
	<g>
		<path d="M378.992,192H117.456C98.784,192,64,192,64,236.688V448c0,8.848,7.168,16,16,16h336c8.832,0,16-7.152,16-16V236.688
			C432,192,397.52,192,378.992,192z M400,432H96V236.688C96,224.72,96,224,117.456,224h261.536C400,224,400,224.464,400,236.688V432
			z"/>
	</g>
</g>
<g>
	<g>
		<path d="M240,192c-8.832,0-16,7.152-16,16v240c0,8.848,7.168,16,16,16c8.832,0,16-7.152,16-16V208
			C256,199.152,248.832,192,240,192z"/>
	</g>
</g>
<g>
	<g>
		<path d="M256,320h-32c-8.832,0-16,7.152-16,16c0,8.848,7.168,16,16,16h32c8.832,0,16-7.152,16-16C272,327.152,264.832,320,256,320
			z"/>
	</g>
</g>
<g>
	<g>
		<path d="M240,112c-8.832,0-16,7.152-16,16v80c0,8.848,7.168,16,16,16c8.832,0,16-7.152,16-16v-80C256,119.152,248.832,112,240,112
			z"/>
	</g>
</g>
<g>
	<g>
		<path d="M368,0H112c-8.832,0-16,7.152-16,16v192c0,8.848,7.168,16,16,16h256c8.832,0,16-7.152,16-16V16C384,7.152,376.832,0,368,0
			z M352,192H128V32h224V192z"/>
	</g>
</g>
<g>
	<g>
		<path d="M207.072,32.432c-6.256-6.24-16.368-6.256-22.624-0.016l-26.16,26.128c-6.256,6.256-6.256,16.384-0.016,22.64
			c3.136,3.12,7.232,4.688,11.328,4.688c4.096,0,8.176-1.552,11.296-4.672l26.16-26.128
			C213.312,48.816,213.312,38.688,207.072,32.432z"/>
	</g>
</g>
<g>
	<g>
		<path d="M237.104,59.312c-6.256-6.256-16.384-6.256-22.624,0l-49.264,49.28c-6.256,6.256-6.256,16.368,0,22.624
			c3.12,3.12,7.216,4.688,11.312,4.688s8.192-1.568,11.312-4.688l49.264-49.28C243.36,75.68,243.36,65.568,237.104,59.312z"/>
	</g>
</g>
<g>
	<g>
		<path d="M300.128,46.768c-6.272-6.24-16.384-6.256-22.624,0.032l-8.576,8.592c-6.256,6.256-6.24,16.368,0.016,22.624
			c3.136,3.104,7.216,4.672,11.312,4.672c4.096,0,8.192-1.568,11.312-4.704l8.576-8.592C306.4,63.136,306.384,53.024,300.128,46.768
			z"/>
	</g>
</g>
<g>
</g>
<g>
</g>
<g>
</g>
<g>
</g>
<g>
</g>
<g>
</g>
<g>
</g>
<g>
</g>
<g>
</g>
<g>
</g>
<g>
</g>
<g>
</g>
<g>
</g>
<g>
</g>
<g>
</g>
</svg>
