<?xml version="1.0" encoding="iso-8859-1"?>
<!-- Generator: Adobe Illustrator 19.0.0, SVG Export Plug-In . SVG Version: 6.00 Build 0)  -->
<svg version="1.1" id="Layer_1" xmlns="http://www.w3.org/2000/svg" xmlns:xlink="http://www.w3.org/1999/xlink" x="0px" y="0px"
	 viewBox="0 0 344.44 344.44" style="enable-background:new 0 0 344.44 344.44;" xml:space="preserve">
<g>
	<g>
		<path d="M254.552,221.861l-43.444-9.656v-13.728c16.789-12.117,27.778-31.8,27.778-54.039v-15.461
			c7.372-4.5,12.728-12.117,14.011-21.122l2.6-18.189l0.056-6.339c0-23.006-9.167-44.422-25.817-60.306
			C213.091,7.15,191.274-0.95,168.196,0.089c-44.472,2.094-79.311,39.622-79.311,85.439v3.356l2.656,18.972
			c1.283,9.006,6.639,16.622,14.011,21.122v15.461c0,22.239,10.989,41.922,27.778,54.039v13.728l-43.444,9.656
			c-33.3,7.4-56.556,36.389-56.556,70.5v52.078h105.556h27.778h11.111h27.778h105.556v-52.078
			C311.107,258.25,287.852,229.261,254.552,221.861z M222.062,31.071c14.095,13.434,21.945,31.462,22.312,50.873l-16.056-3.567
			c-7.517-1.672-15.122-2.911-22.767-3.894v-2.028c0-22.006-7.156-42.861-20.2-60.106C199.057,14.843,211.723,21.205,222.062,31.071
			z M172.218,13.794c14.317,16.233,22.222,36.817,22.222,58.65v0.839c-14.783-1.267-29.661-1.267-44.444,0v-0.844
			C149.996,50.611,157.902,30.028,172.218,13.794z M100.162,81.916c1.612-34.827,26.229-63.405,58.884-69.522
			c-13.017,17.239-20.161,38.072-20.161,60.056v2.028c-7.639,0.989-15.25,2.228-22.767,3.894L100.162,81.916z M102.537,106.284
			l-1.869-13.095l17.861-3.972c35.2-7.817,72.178-7.817,107.378,0l17.861,3.972l-1.872,13.1
			c-1.294,9.078-9.194,15.928-18.367,15.928h-1.311c-6.667,0-13.183-1.256-19.361-3.728l-7.144-2.861
			c-7.506-3-15.411-4.522-23.494-4.522s-15.989,1.522-23.494,4.522l-7.144,2.861c-6.178,2.472-12.694,3.728-19.361,3.728h-1.311
			C111.737,122.217,103.837,115.367,102.537,106.284z M116.663,144.439v-11.506c1.394,0.206,2.8,0.394,4.244,0.394h1.311
			c8.083,0,15.989-1.522,23.494-4.522l7.144-2.861c12.367-4.95,26.361-4.95,38.728,0l7.144,2.861c7.5,3,15.406,4.522,23.489,4.522
			h1.311c1.444,0,2.85-0.189,4.244-0.394v11.506c0,30.633-24.922,55.556-55.556,55.556
			C141.582,199.995,116.663,175.072,116.663,144.439z M210.19,223.389c-3.028,12.056-13.878,21.05-26.861,21.05h-22.222
			c-12.983,0-23.833-8.994-26.861-21.056l10.194-2.267V204.96c8.467,3.907,17.856,6.145,27.778,6.145s19.311-2.239,27.778-6.139
			v16.156L210.19,223.389z M88.885,333.328H44.441v-11.111h44.444V333.328z M155.552,333.328h-5.556v-8.333
			c0-1.533,1.244-2.778,2.778-2.778c1.533,0,2.778,1.244,2.778,2.778V333.328z M194.441,333.328h-5.556v-8.333
			c0-1.533,1.244-2.778,2.778-2.778c1.533,0,2.778,1.244,2.778,2.778V333.328z M205.551,333.327v-8.333
			c0.001-7.655-6.233-13.889-13.888-13.889c-7.656,0-13.889,6.233-13.889,13.889v8.333h-11.111v-8.333
			c0-7.656-6.233-13.889-13.889-13.889s-13.889,6.233-13.889,13.889v8.333h-16.339c2.778-24.961,23.983-44.444,49.672-44.444
			c25.689,0,46.894,19.483,49.672,44.444H205.551z M299.996,333.328h-44.444v-11.111h44.444V333.328z M299.997,311.105h-44.444
			h-5.556h-5.556v22.222h-11.394c-2.817-31.1-29.006-55.556-60.828-55.556c-31.822,0-58.011,24.456-60.828,55.556H99.996v-22.222
			H94.44h-5.556H44.441v-18.744c0-28.861,19.677-53.394,47.855-59.656l31.056-6.9c4.128,17.039,19.467,29.744,37.756,29.744h22.222
			c18.289,0,33.628-12.706,37.761-29.744l31.056,6.9c28.172,6.261,47.85,30.794,47.85,59.656V311.105z"/>
	</g>
</g>
<g>
</g>
<g>
</g>
<g>
</g>
<g>
</g>
<g>
</g>
<g>
</g>
<g>
</g>
<g>
</g>
<g>
</g>
<g>
</g>
<g>
</g>
<g>
</g>
<g>
</g>
<g>
</g>
<g>
</g>
</svg>
